# xmcd
#
# Track frame offsets: 
#        150
#        15628
#        30538
#        48872
#
# Disc length: 911 seconds
#
# Revision: 0
# Processed by: cddbd v1.5.2PL0 Copyright (c) Steve Scherf et al.
# Submitted via: ExactAudioCopy v0.99pb4
#
DISCID=23038d04
DTITLE=Tina Arena - Soul Mate #9
DYEAR=2001
DGENRE=Pop
TTITLE0=Soul Mate #9
TTITLE1=Soul Mate #9 (Nathan G Volume Radio Edit)
TTITLE2=Soul Mate #9 (Big Boyz Remix)
TTITLE3=It's Tonight
EXTD=
EXTT0=
EXTT1=
EXTT2=
EXTT3=
PLAYORDER=
